<svg width="100" height="100" viewBox="0 0 100 100" fill="none" xmlns="http://www.w3.org/2000/svg">
<path d="M65.2153 6.02128C51.4862 7.9851 45.6691 17.2056 45.6691 17.2056C44.9458 15.3235 44.015 13.5256 42.8935 11.8445C42.8121 11.7255 42.6949 11.6347 42.5586 11.5848C42.4222 11.5349 42.2735 11.5284 42.1332 11.5662C40.5625 12.0505 39.103 12.8335 37.8368 13.8713C37.7649 13.9288 37.7053 13.9998 37.6615 14.0802C37.6177 14.1607 37.5905 14.2489 37.5816 14.3398C37.5727 14.4308 37.5822 14.5225 37.6096 14.6098C37.637 14.697 37.6817 14.778 37.7411 14.848C39.9002 17.4959 41.6557 20.4413 42.952 23.5907C42.9599 23.5959 42.9691 23.5986 42.9786 23.5986C42.9881 23.5986 42.9973 23.5959 43.0052 23.5907C45.3159 23.2446 47.6496 23.0691 49.9867 23.0656H50.5822C51.6191 21.7844 55.8144 16.733 59.4727 14.0026C59.5578 13.9323 59.6665 13.8962 59.7773 13.9015C59.8881 13.9068 59.9929 13.9532 60.0706 14.0313C60.1484 14.1094 60.1935 14.2136 60.197 14.3231C60.2005 14.4326 60.1621 14.5394 60.0895 14.6222C58.2444 16.9326 55.8357 19.6473 53.3419 23.0971C53.3364 23.1054 53.3331 23.1149 53.3324 23.1248C53.3316 23.1347 53.3335 23.1446 53.3378 23.1535C53.342 23.1625 53.3486 23.1702 53.3568 23.176C53.3649 23.1817 53.3745 23.1853 53.3844 23.1864C55.893 23.3664 58.3825 23.7475 60.8286 24.3258C60.836 24.3295 60.8442 24.3314 60.8525 24.3314C60.8608 24.3314 60.869 24.3295 60.8764 24.3258C66.7254 19.3217 67.7463 12.1018 67.8314 8.2949C67.8345 7.96837 67.7663 7.64502 67.6315 7.34684C67.4967 7.04866 67.2984 6.78265 67.0502 6.56692C66.802 6.35118 66.5096 6.19078 66.193 6.09663C65.8763 6.00247 65.5429 5.97677 65.2153 6.02128V6.02128Z" fill="#DBDBDB"/>
<path d="M49.9973 25.586C29.5685 25.586 13 39.6111 13 56.9127C13 67.6034 19.3275 77.0392 28.9836 82.6944L26.0751 92.4243C25.9609 92.8049 25.9636 93.2104 26.0829 93.5895C26.2022 93.9686 26.4327 94.3042 26.7453 94.5539C27.0578 94.8035 27.4384 94.956 27.8387 94.9919C28.2391 95.0278 28.6412 94.9456 28.9943 94.7557L42.4256 87.5935C44.9258 88.0231 47.4596 88.234 49.9973 88.2236C70.4315 88.2236 87 74.1985 87 56.8969C87 39.5953 70.4315 25.586 49.9973 25.586ZM53.9215 77.6116C40.6284 77.6116 29.845 68.4803 29.845 57.2225C29.845 45.9646 40.6231 36.8334 53.9215 36.8334C67.2199 36.8334 78.0032 45.9594 78.0032 57.2225C78.0032 68.4856 67.2199 77.6116 53.9215 77.6116V77.6116Z" fill="#DBDBDB"/>
<path d="M48.2533 59.3385C49.6129 59.3385 50.7151 58.25 50.7151 56.9073C50.7151 55.5647 49.6129 54.4762 48.2533 54.4762C46.8936 54.4762 45.7914 55.5647 45.7914 56.9073C45.7914 58.25 46.8936 59.3385 48.2533 59.3385Z" fill="#DBDBDB"/>
<path d="M56.1388 63.0719C57.4984 63.0719 58.6007 61.9834 58.6007 60.6407C58.6007 59.2981 57.4984 58.2096 56.1388 58.2096C54.7791 58.2096 53.6769 59.2981 53.6769 60.6407C53.6769 61.9834 54.7791 63.0719 56.1388 63.0719Z" fill="#DBDBDB"/>
<path d="M64.0241 59.3385C65.3838 59.3385 66.486 58.25 66.486 56.9073C66.486 55.5647 65.3838 54.4762 64.0241 54.4762C62.6645 54.4762 61.5623 55.5647 61.5623 56.9073C61.5623 58.25 62.6645 59.3385 64.0241 59.3385Z" fill="#DBDBDB"/>
</svg>
